<svg id="Layer_1" height="512" viewBox="0 0 512 512" width="512" xmlns="http://www.w3.org/2000/svg" data-name="Layer 1"><path d="m501.756 90h-491.512a6.058 6.058 0 0 0 -6.244 5.814v36.686a6.656 6.656 0 0 0 6.244 6.5h14.756v277.186a5.782 5.782 0 0 0 5.927 5.814h40.967a5.935 5.935 0 0 0 6.106-5.814v-277.186h153v77.841a6.22 6.22 0 0 0 6.1 6.159h196.9v193.186a5.935 5.935 0 0 0 6.106 5.814h40.967a5.782 5.782 0 0 0 5.927-5.814v-277.186h14.756a6.656 6.656 0 0 0 6.244-6.5v-36.686a6.058 6.058 0 0 0 -6.244-5.814zm-435.756 320h-29v-271h29zm177-199v-72h191v72zm232 199h-29v-271h29zm21-283h-480v-25h480z"/><path d="m374 167h-65a6 6 0 0 0 0 12h65a6 6 0 0 0 0-12z"/></svg>