<?xml version="1.0" ?><svg data-name="Layer 14" id="Layer_14" viewBox="0 0 100 100" xmlns="http://www.w3.org/2000/svg"><title/><path d="M89.67,49.11A4.09,4.09,0,0,0,85.83,45H21V32.06a4.74,4.74,0,0,1,4.72-4.64A4.41,4.41,0,0,1,30.44,32h2a6.47,6.47,0,0,0-6.72-6.59A6.74,6.74,0,0,0,19,32.06V45H14.17a4.05,4.05,0,0,0-.63,8C14,57,17,61.4,25,64.18V74h4.44l2.06-8.15A102.92,102.92,0,0,0,50,67.29,116.77,116.77,0,0,0,68.55,66l2,8H75V64.55C82,62.27,86,58.39,86.48,53A4.07,4.07,0,0,0,89.67,49.11ZM27.88,72H27V64.94l2.6.61ZM73,72h-.88l-1.68-6.32c.92-.18,1.56-.35,2.56-.56Zm2-9.67L68.3,64A113.37,113.37,0,0,1,50,65.17C28.53,65.17,16.66,61,15.48,53H84.55C84.18,56,82.25,59.91,75,62.33ZM85.83,51H14.17a2,2,0,0,1,0-4H85.83a2,2,0,0,1,0,4ZM32.54,35.35a1.15,1.15,0,1,1-1.15-1.15A1.15,1.15,0,0,1,32.54,35.35Zm0,3.91a1.15,1.15,0,1,1-1.15-1.15A1.15,1.15,0,0,1,32.54,39.27Zm0,4a1.15,1.15,0,1,1-1.15-1.15A1.15,1.15,0,0,1,32.54,43.31Z"/></svg>