<?xml version="1.0" encoding="iso-8859-1"?>
<!-- Generator: Adobe Illustrator 17.1.0, SVG Export Plug-In . SVG Version: 6.00 Build 0)  -->
<!DOCTYPE svg PUBLIC "-//W3C//DTD SVG 1.1//EN" "http://www.w3.org/Graphics/SVG/1.1/DTD/svg11.dtd">
<svg version="1.1" id="Capa_1" xmlns="http://www.w3.org/2000/svg" xmlns:xlink="http://www.w3.org/1999/xlink" x="0px" y="0px"
	 viewBox="0 0 189.55 189.55" style="enable-background:new 0 0 189.55 189.55;" xml:space="preserve">
<path d="M171.383,174.473h-23.458c-1.381,0-2.5-1.119-2.5-2.5v-10.877H44.126v10.877c0,1.381-1.119,2.5-2.5,2.5H18.168
	c-1.381,0-2.5-1.119-2.5-2.5v-10.912C6.935,160.501,0,153.218,0,144.345V31.827c0-9.236,7.514-16.75,16.75-16.75H172.8
	c9.236,0,16.75,7.514,16.75,16.75v112.518c0,8.873-6.934,16.156-15.667,16.715v10.912
	C173.883,173.354,172.764,174.473,171.383,174.473z M150.425,169.473h18.458v-8.377h-18.458V169.473z M20.668,169.473h18.458v-8.377
	H20.668V169.473z M171.383,156.095h1.417c6.479,0,11.75-5.271,11.75-11.75V31.827c0-6.479-5.271-11.75-11.75-11.75H16.75
	C10.271,20.077,5,25.348,5,31.827v112.518c0,6.479,5.271,11.75,11.75,11.75H171.383z M162.466,146.604H27.084
	c-6.295,0-11.416-5.122-11.416-11.417V40.985c0-6.295,5.121-11.416,11.416-11.416h135.382c6.295,0,11.417,5.121,11.417,11.416
	v94.202C173.883,141.482,168.761,146.604,162.466,146.604z M27.084,34.569c-3.538,0-6.416,2.878-6.416,6.416v94.202
	c0,3.538,2.878,6.417,6.416,6.417h135.382c3.538,0,6.417-2.878,6.417-6.417V40.985c0-3.538-2.879-6.416-6.417-6.416H27.084z
	 M63.456,115.458c-1.381,0-2.5-1.119-2.5-2.5v-3.285c-4.357-0.501-8.327-2.297-11.514-4.991l-2.701,2.702
	c-0.975,0.977-2.559,0.976-3.535,0c-0.977-0.976-0.977-2.559,0-3.536l2.811-2.812c-2.219-2.979-3.692-6.544-4.145-10.417h-3.22
	c-1.381,0-2.5-1.119-2.5-2.5s1.119-2.5,2.5-2.5h3.212c0.46-4.052,2.039-7.77,4.419-10.835l-2.392-2.393
	c-0.977-0.976-0.977-2.559,0-3.535c0.977-0.977,2.559-0.977,3.535,0l2.354,2.354c3.127-2.539,6.97-4.227,11.175-4.711v-3.217
	c0-1.381,1.119-2.5,2.5-2.5s2.5,1.119,2.5,2.5V66.5c4.374,0.503,8.357,2.311,11.55,5.022l2.665-2.665
	c0.977-0.977,2.559-0.977,3.535,0c0.977,0.976,0.977,2.559,0,3.535l-2.782,2.783c2.208,2.98,3.674,6.543,4.119,10.412h3.217
	c1.381,0,2.5,1.119,2.5,2.5s-1.119,2.5-2.5,2.5h-3.217c-0.455,3.955-1.977,7.59-4.268,10.61l2.651,2.652
	c0.977,0.976,0.977,2.559,0,3.535c-0.977,0.977-2.559,0.977-3.535,0l-2.574-2.574c-3.16,2.624-7.073,4.371-11.361,4.864v3.285
	C65.956,114.338,64.837,115.458,63.456,115.458z M63.456,71.356c-9.226,0-16.73,7.505-16.73,16.73
	c0,9.225,7.505,16.729,16.73,16.729c9.225,0,16.729-7.505,16.729-16.729C80.186,78.861,72.681,71.356,63.456,71.356z M63.456,98.668
	c-5.835,0-10.582-4.747-10.582-10.582s4.747-10.582,10.582-10.582s10.582,4.747,10.582,10.582S69.291,98.668,63.456,98.668z
	 M63.456,82.504c-3.078,0-5.582,2.504-5.582,5.582s2.504,5.582,5.582,5.582s5.582-2.504,5.582-5.582S66.534,82.504,63.456,82.504z
	 M150.639,97.414h-43.197c-1.381,0-2.5-1.119-2.5-2.5V81.258c0-1.381,1.119-2.5,2.5-2.5h43.197c1.381,0,2.5,1.119,2.5,2.5v13.656
	C153.139,96.295,152.02,97.414,150.639,97.414z M109.941,92.414h38.197v-8.656h-38.197V92.414z"/>
<g>
</g>
<g>
</g>
<g>
</g>
<g>
</g>
<g>
</g>
<g>
</g>
<g>
</g>
<g>
</g>
<g>
</g>
<g>
</g>
<g>
</g>
<g>
</g>
<g>
</g>
<g>
</g>
<g>
</g>
</svg>
