<svg width="32" height="32" xmlns="http://www.w3.org/2000/svg">

 <g>
  <title>background</title>
  <rect fill="none" id="canvas_background" height="402" width="582" y="-1" x="-1"/>
 </g>
 <g>
  <title>Layer 1</title>
  <path id="svg_2" fill="#ffffff" d="m28.562,25.996l-2.058,-5.625c0.641,-1.516 0.995,-3.184 0.995,-4.934c0.001,-7.007 -5.679,-12.687 -12.687,-12.687c-7.007,0 -12.688,5.68 -12.688,12.688c0,7.008 5.68,12.688 12.688,12.688c3.006,0 5.764,-1.051 7.938,-2.797l4.638,1.816c1.024,0.402 1.553,-0.116 1.174,-1.149zm-20.062,-8.934c-0.897,0 -1.625,-0.728 -1.625,-1.625s0.728,-1.625 1.625,-1.625s1.625,0.728 1.625,1.625s-0.728,1.625 -1.625,1.625zm6,0c-0.897,0 -1.625,-0.728 -1.625,-1.625s0.728,-1.625 1.625,-1.625s1.625,0.728 1.625,1.625s-0.728,1.625 -1.625,1.625zm6,0c-0.897,0 -1.625,-0.728 -1.625,-1.625s0.728,-1.625 1.625,-1.625s1.625,0.728 1.625,1.625s-0.728,1.625 -1.625,1.625z"/>
 </g>
</svg>