<svg id="Capa_1" enable-background="new 0 0 450.823 450.823" height="512" viewBox="0 0 450.823 450.823" width="512" xmlns="http://www.w3.org/2000/svg"><path d="m436.735 366.294h-197.235c-7.787 0-14.088 6.301-14.088 14.088s6.301 14.088 14.088 14.088h14.088v56.353h28.176v-56.353h112.706v56.353h28.176v-56.353h14.088c7.787 0 14.088-6.301 14.088-14.088s-6.3-14.088-14.087-14.088z"/><path d="m309.941 154.971c0-85.452-69.519-154.971-154.97-154.971s-154.971 69.519-154.971 154.971c0 80.696 62.018 147.106 140.882 154.257v141.596h28.176v-141.597c78.865-7.15 140.883-73.56 140.883-154.256zm-281.765 0c0-69.918 56.876-126.794 126.794-126.794s126.794 56.876 126.794 126.794c0 65.094-49.482 118.257-112.706 125.37v-167.635h-28.176v83.384l-47.548-38.038-17.61 22.013 65.158 52.126v48.15c-63.223-7.113-112.706-60.276-112.706-125.37z"/></svg>